<?xml version="1.0" standalone="no"?>
<!DOCTYPE svg PUBLIC "-//W3C//DTD SVG 20010904//EN"
 "http://www.w3.org/TR/2001/REC-SVG-20010904/DTD/svg10.dtd">
<svg version="1.0" xmlns="http://www.w3.org/2000/svg"
 width="164.000000pt" height="149.000000pt" viewBox="0 0 164.000000 149.000000"
 preserveAspectRatio="xMidYMid meet">

<g transform="translate(0.000000,149.000000) scale(0.100000,-0.100000)"
fill="#000000" stroke="none">
<path d="M638 1447 c-7 -23 -13 -84 -13 -134 0 -81 3 -95 21 -114 l22 -21 51
23 c28 13 51 27 51 31 0 5 -26 89 -44 143 -4 11 2 4 13 -15 11 -19 27 -56 36
-82 16 -46 16 -47 48 -36 47 16 50 21 37 69 -15 56 -86 126 -157 156 l-53 22
-12 -42z"/>
<path d="M966 1273 c-16 -2 -35 -11 -42 -18 -8 -7 -37 -21 -66 -30 -78 -26
-194 -88 -268 -145 -47 -36 -74 -49 -98 -50 -33 0 -33 1 -26 33 11 47 7 67
-16 92 -12 13 -18 28 -14 38 17 45 -124 -6 -195 -69 -87 -78 -129 -161 -144
-284 -7 -50 6 -192 19 -225 7 -18 6 -18 -7 -5 -9 8 -21 24 -28 35 -11 19 -12
18 -6 -5 11 -43 71 -164 95 -190 l22 -25 -17 28 c-9 16 -19 41 -21 55 -3 15
-10 32 -16 39 -16 19 -1 29 22 15 16 -10 20 -7 30 22 l11 33 77 0 c43 0 84 3
90 7 7 4 12 22 12 41 0 19 4 37 10 40 6 4 10 -11 10 -39 l0 -45 45 -7 c25 -3
65 -3 89 0 47 7 54 15 58 72 2 24 6 30 20 26 10 -2 18 -9 18 -14 0 -5 -5 -6
-12 -2 -7 5 -8 3 -4 -5 5 -7 10 -10 13 -7 4 3 23 -10 44 -29 46 -41 84 -49
197 -41 159 12 175 12 191 -4 13 -13 11 -16 -15 -20 -22 -4 -29 -11 -31 -30
-1 -23 -1 -23 4 -2 4 20 10 23 46 20 33 -2 44 -8 54 -28 9 -17 13 -20 13 -8 0
9 -4 20 -10 23 -5 3 -10 11 -10 16 0 13 42 1 52 -15 5 -7 8 -4 8 7 0 9 -4 17
-10 17 -5 0 -10 5 -10 11 0 6 12 1 26 -10 15 -11 30 -18 35 -15 5 3 9 0 9 -5
0 -6 3 -10 8 -9 4 1 18 -2 30 -6 21 -7 23 -13 19 -44 -4 -29 -2 -26 11 16 14
42 21 52 39 52 19 0 26 -10 42 -62 13 -40 18 -49 15 -27 -4 22 -1 40 5 43 6 4
11 0 11 -8 0 -19 11 -21 28 -4 7 7 12 8 12 2 0 -6 -3 -14 -7 -18 -4 -3 -8 -14
-9 -22 -5 -30 -14 -45 -24 -39 -5 3 -10 -1 -10 -9 0 -9 -6 -16 -12 -16 -10 0
-10 -2 0 -8 9 -6 -3 -26 -44 -70 -30 -34 -53 -66 -49 -72 3 -5 3 -10 -2 -10
-4 0 -24 -14 -43 -31 l-35 -31 50 34 c131 88 251 245 300 393 35 104 37 239 6
329 -70 199 -236 313 -466 321 -55 2 -113 1 -129 -2z m-546 -160 c-1 -48 -12
-63 -46 -63 -23 0 -37 -6 -44 -19 -17 -33 -11 -41 30 -41 39 0 40 -1 40 -35 0
-34 -1 -35 -40 -35 l-40 0 0 -125 c0 -137 5 -126 -62 -129 l-28 -2 0 128 0
128 -24 0 c-24 0 -35 20 -28 53 2 10 13 17 28 17 19 0 24 5 24 25 0 37 26 82
58 99 15 9 51 15 80 16 43 0 52 -3 52 -17z m17 -25 c-3 -7 -5 -2 -5 12 0 14 2
19 5 13 2 -7 2 -19 0 -25z m693 -10 c0 -24 -5 -50 -11 -58 -8 -11 -9 -1 -5 38
5 50 4 52 -19 52 -16 0 -37 -16 -66 -50 -23 -27 -49 -50 -58 -49 -11 0 -10 3
5 9 11 4 27 19 36 32 32 47 59 68 88 68 29 0 30 -2 30 -42z m-30 -38 l0 -50
35 0 c33 0 35 -2 35 -35 0 -33 -2 -35 -35 -35 l-35 0 0 -79 c0 -87 12 -108 54
-97 20 5 24 2 28 -24 6 -43 -4 -52 -61 -52 -95 0 -126 46 -119 180 3 69 2 72
-19 72 -21 0 -22 -4 -25 -130 -3 -116 2 -155 15 -117 2 8 4 7 3 -2 -1 -21 -55
-37 -69 -21 -9 10 -7 12 11 7 12 -3 20 -1 17 3 -3 5 -1 10 5 12 5 2 10 69 11
158 1 85 5 145 8 133 5 -20 13 -14 64 52 32 41 62 75 67 75 6 0 10 -22 10 -50z
m-715 -7 c-16 -3 -33 -10 -37 -16 -5 -8 -8 -8 -8 -1 0 18 12 24 44 23 l31 -2
-30 -4z m243 -10 c-10 -2 -28 -2 -40 0 -13 2 -5 4 17 4 22 1 32 -1 23 -4z
m110 0 c-16 -2 -40 -2 -55 0 -16 2 -3 4 27 4 30 0 43 -2 28 -4z m157 -2 l-60
-6 -6 -100 -5 -100 -2 96 c-1 63 2 99 10 107 7 7 35 11 68 10 l55 -1 -60 -6z
m293 2 c-10 -2 -26 -2 -35 0 -10 3 -2 5 17 5 19 0 27 -2 18 -5z m197 2 c-22
-7 -169 -12 -150 -4 11 4 52 8 90 8 39 -1 66 -2 60 -4z m-597 -131 l-3 -109
-5 117 c-3 64 -1 114 3 109 4 -4 6 -57 5 -117z m668 92 c19 -19 34 -42 34 -52
-1 -12 -6 -7 -15 13 -8 18 -29 42 -47 53 -18 11 -27 20 -19 20 7 0 28 -15 47
-34z m-952 8 c9 -3 16 -16 16 -28 0 -16 2 -18 9 -6 6 8 8 17 6 20 -2 4 1 7 8
8 7 0 29 4 50 8 l37 7 0 -47 c0 -46 0 -46 -34 -46 -54 0 -66 -26 -66 -142 0
-108 7 -99 -70 -102 l-30 -1 0 161 c0 88 3 164 7 167 8 9 46 9 67 1z m246
-104 c0 -124 12 -150 70 -150 l30 0 0 130 0 130 45 0 45 0 0 -160 0 -160 -27
-7 c-16 -5 -60 -8 -100 -8 -57 0 -77 4 -100 21 -46 34 -53 59 -53 192 l0 122
45 0 45 0 0 -110z m663 86 c19 -13 37 -23 39 -20 2 2 5 -59 7 -136 l2 -139
-28 -8 c-46 -12 -212 -7 -211 7 1 19 -4 23 -12 10 -7 -12 -9 -11 -9 5 0 11 -3
38 -6 60 -6 33 -3 45 16 69 27 34 75 56 124 56 37 0 43 8 23 28 -14 14 -92 16
-116 3 -13 -7 -17 -4 -19 12 -1 12 -4 31 -5 41 -4 24 25 34 103 35 44 1 64 -4
92 -23z m-996 -43 c-3 -10 -5 -2 -5 17 0 19 2 27 5 18 2 -10 2 -26 0 -35z
m768 -23 c-3 -5 -19 -10 -35 -10 l-29 0 -4 -72 -3 -73 -2 77 -2 77 38 4 c20 2
38 4 40 5 2 1 0 -2 -3 -8z m-968 -6 c-3 -3 -12 -4 -19 -1 -8 3 -5 6 6 6 11 1
17 -2 13 -5z m171 -1 c-10 -2 -26 -2 -35 0 -10 3 -2 5 17 5 19 0 27 -2 18 -5z
m945 0 c-13 -2 -33 -2 -45 0 -13 2 -3 4 22 4 25 0 35 -2 23 -4z m144 -15 c-3
-8 -6 -5 -6 6 -1 11 2 17 5 13 3 -3 4 -12 1 -19z m23 -108 c0 -107 -3 -130
-14 -130 -20 0 -29 17 -15 26 8 4 9 3 5 -4 -4 -7 -2 -12 3 -12 7 0 11 44 11
125 0 69 2 125 5 125 3 0 5 -58 5 -130z m-877 109 c-6 -6 -22 -12 -37 -12 -21
-2 -24 -6 -20 -27 4 -22 3 -23 -5 -5 -7 14 -9 1 -5 -45 3 -36 1 -84 -4 -107
-9 -37 -8 -43 7 -44 39 -1 -27 -18 -74 -18 -41 0 -46 2 -31 10 10 6 33 9 51 6
l33 -5 1 105 c2 114 11 146 38 136 11 -4 14 -3 9 5 -5 8 2 12 20 12 20 0 25
-3 17 -11z m-406 -171 c-2 -29 -3 -6 -3 52 0 58 1 81 3 53 2 -29 2 -77 0 -105z
m150 30 c-2 -18 -4 -4 -4 32 0 36 2 50 4 33 2 -18 2 -48 0 -65z m460 40 c-3
-8 -6 -5 -6 6 -1 11 2 17 5 13 3 -3 4 -12 1 -19z m-467 -123 c0 -14 -4 -25 -9
-25 -4 0 -6 11 -3 25 2 14 6 25 8 25 2 0 4 -11 4 -25z m355 2 c4 5 5 2 1 -5
-8 -13 -39 -2 -52 19 -3 6 5 4 18 -5 14 -9 28 -13 33 -9z m318 8 c4 0 7 -3 7
-7 0 -5 -3 -7 -7 -7 -20 4 -33 12 -33 21 0 5 6 6 13 1 6 -4 15 -8 20 -8z m162
-15 c-4 -6 10 -8 35 -6 22 2 38 1 35 -3 -8 -8 -66 -11 -85 -5 -13 4 -13 6 0
14 19 12 23 12 15 0z m-450 -10 c-3 -5 -11 -10 -16 -10 -6 0 -7 5 -4 10 3 6
11 10 16 10 6 0 7 -4 4 -10z m330 0 c-3 -5 -11 -10 -16 -10 -6 0 -7 5 -4 10 3
6 11 10 16 10 6 0 7 -4 4 -10z m379 1 c8 -12 -45 -21 -123 -21 -52 1 -62 3
-47 11 10 6 45 9 77 7 33 -2 59 -1 59 4 0 11 27 10 34 -1z m-1139 -11 c3 -6
-5 -10 -19 -10 -14 0 -28 5 -31 10 -3 6 5 10 19 10 14 0 28 -4 31 -10z m575 0
c10 -7 -10 -10 -65 -10 -55 0 -75 3 -65 10 8 5 38 10 65 10 28 0 57 -5 65 -10z
m270 0 c11 -7 1 -10 -35 -9 -37 0 -45 3 -30 9 27 12 47 12 65 0z m-55 -40 c-3
-5 -11 -10 -16 -10 -6 0 -7 5 -4 10 3 6 11 10 16 10 6 0 7 -4 4 -10z"/>
<path d="M1308 813 c-22 -6 -33 -40 -18 -58 7 -8 28 -15 46 -15 33 0 34 1 34
40 0 42 -10 47 -62 33z m22 -17 c0 -2 -7 -6 -15 -10 -8 -3 -15 -1 -15 4 0 6 7
10 15 10 8 0 15 -2 15 -4z"/>
<path d="M888 1253 c7 -3 16 -2 19 1 4 3 -2 6 -13 5 -11 0 -14 -3 -6 -6z"/>
<path d="M1020 610 c-13 -8 -12 -10 3 -10 9 0 17 5 17 10 0 12 -1 12 -20 0z"/>
<path d="M823 515 c0 -33 2 -45 4 -27 2 18 2 45 0 60 -2 15 -4 0 -4 -33z"/>
<path d="M545 540 c-3 -6 1 -7 9 -4 18 7 21 14 7 14 -6 0 -13 -4 -16 -10z"/>
<path d="M1060 530 c0 -11 4 -20 8 -20 4 0 8 9 9 20 1 11 -2 20 -8 20 -5 0 -9
-9 -9 -20z"/>
<path d="M1120 512 c0 -6 -7 -18 -16 -26 -8 -9 -11 -16 -5 -16 13 0 35 39 27
48 -3 3 -6 0 -6 -6z"/>
<path d="M1321 504 c0 -11 3 -14 6 -6 3 7 2 16 -1 19 -3 4 -6 -2 -5 -13z"/>
<path d="M1296 433 c-6 -14 -5 -15 5 -6 7 7 10 15 7 18 -3 3 -9 -2 -12 -12z"/>
<path d="M190 416 c0 -2 8 -10 18 -17 15 -13 16 -12 3 4 -13 16 -21 21 -21 13z"/>
</g>
</svg>
